Coordinates
version=1
nRows=31
nColumns=38
inDegrees=no

Units are S.I. units (second, meters, Newtons, ...)
If the header above contains a line with 'inDegrees', this indicates whether rotational values are in degrees (yes) or radians (no).

endheader
time	pelvis_tilt	pelvis_list	pelvis_rotation	pelvis_tx	pelvis_ty	pelvis_tz	hip_flexion_r	hip_adduction_r	hip_rotation_r	knee_angle_r	ankle_angle_r	subtalar_angle_r	mtp_angle_r	hip_flexion_l	hip_adduction_l	hip_rotation_l	knee_angle_l	ankle_angle_l	subtalar_angle_l	mtp_angle_l	lumbar_extension	lumbar_bending	lumbar_rotation	arm_flex_r	arm_add_r	arm_rot_r	elbow_flex_r	pro_sup_r	wrist_flex_r	wrist_dev_r	arm_flex_l	arm_add_l	arm_rot_l	elbow_flex_l	pro_sup_l	wrist_flex_l	wrist_dev_l
1.13	-3.01931	0.886741	1.52083	0.57401	0.240534	1.02753	0.674784	0.0429975	-0.0340892	0.23132	-0.245299	0	0	1.03048	-0.0708452	-0.120109	0.792973	-0.123968	0	0	0.77601	0.18508	0.334791	-0.597168	-0.311609	-0.341729	0.800787	1.48949	0	0	-0.175332	-0.0808705	-0.638616	0.195919	1.5708	0	0
1.14	-3.02841	0.888856	1.52216	0.573601	0.229182	1.02828	0.659943	0.0418753	-0.0316037	0.228564	-0.246924	0	0	1.02644	-0.071453	-0.13721	0.727682	-0.13517	0	0	0.774792	0.183728	0.346869	-0.596131	-0.311526	-0.344029	0.813445	1.48829	0	0	-0.175686	-0.0807993	-0.630235	0.198378	1.5708	0	0
1.15	-3.03669	0.89174	1.52244	0.573135	0.217775	1.02886	0.64427	0.0413211	-0.0287354	0.225926	-0.247398	0	0	1.01993	-0.072576	-0.157181	0.659162	-0.151573	0	0	0.771974	0.182818	0.357803	-0.593826	-0.312547	-0.344298	0.825362	1.48785	0	0	-0.175262	-0.080359	-0.623334	0.200686	1.5708	0	0
1.16	-3.04373	0.895122	1.52152	0.572678	0.206288	1.02924	0.627822	0.041337	-0.025174	0.223124	-0.247075	0	0	1.01191	-0.0739529	-0.178886	0.589098	-0.174393	0	0	0.768032	0.182361	0.366962	-0.59043	-0.314637	-0.3427	0.836719	1.48884	0	0	-0.174472	-0.0793618	-0.618621	0.202927	1.5708	0	0
1.17	-3.04974	0.898768	1.51925	0.57223	0.194761	1.02936	0.611093	0.041929	-0.0212449	0.220353	-0.246039	0	0	1.0023	-0.0752472	-0.201534	0.516201	-0.201828	0	0	0.763109	0.182659	0.374938	-0.586716	-0.317599	-0.340033	0.848607	1.49215	0	0	-0.173424	-0.0777359	-0.616331	0.205534	1.5708	0	0
1.18	-3.05429	0.902407	1.51547	0.571799	0.183231	1.0292	0.594572	0.0435065	-0.0176528	0.217862	-0.244022	0	0	0.99185	-0.0762266	-0.223779	0.441158	-0.231718	0	0	0.757693	0.18379	0.381464	-0.582496	-0.321213	-0.336421	0.860645	1.49741	0	0	-0.172352	-0.0756413	-0.615277	0.208608	1.5708	0	0
1.19	-3.05727	0.906016	1.51052	0.571465	0.171727	1.02874	0.577989	0.0456555	-0.0138731	0.215229	-0.24235	0	0	0.980776	-0.0765319	-0.24384	0.364679	-0.263224	0	0	0.752079	0.18538	0.386202	-0.577508	-0.325421	-0.331725	0.872132	1.5034	0	0	-0.171406	-0.0730958	-0.615868	0.21239	1.5708	0	0
1.2	-3.05875	0.909335	1.5046	0.571246	0.160229	1.02795	0.561565	0.0481991	-0.00987652	0.212665	-0.240985	0	0	0.969505	-0.0759302	-0.260505	0.287961	-0.292609	0	0	0.746537	0.187619	0.389563	-0.572817	-0.330069	-0.326678	0.884094	1.50933	0	0	-0.170453	-0.070157	-0.617642	0.216546	1.5708	0	0
1.21	-3.05889	0.912372	1.49749	0.571057	0.148738	1.02683	0.545373	0.0514048	-0.00532839	0.210501	-0.238452	0	0	0.958319	-0.0751875	-0.273402	0.212208	-0.324921	0	0	0.740612	0.190518	0.391742	-0.567881	-0.334718	-0.322499	0.89669	1.51379	0	0	-0.169486	-0.0667401	-0.621165	0.221388	1.5708	0	0
1.22	-3.05759	0.914552	1.48908	0.570858	0.1373	1.02533	0.53024	0.0554433	-0.00108228	0.208786	-0.234816	0	0	0.948433	-0.0748014	-0.281472	0.139512	-0.356758	0	0	0.734936	0.1942	0.392814	-0.563119	-0.339828	-0.317569	0.909873	1.51892	0	0	-0.16856	-0.0629851	-0.625344	0.226836	1.5708	0	0
1.23	-3.05475	0.916054	1.47964	0.570688	0.125868	1.02352	0.515742	0.0601985	0.00379349	0.207151	-0.230567	0	0	0.939586	-0.0747387	-0.284602	0.0706861	-0.384749	0	0	0.729686	0.198553	0.392523	-0.558501	-0.345245	-0.312047	0.923195	1.52529	0	0	-0.167945	-0.0588968	-0.63051	0.233225	1.5708	0	0
1.24	-3.05041	0.917007	1.46937	0.570574	0.11442	1.02141	0.501857	0.0655717	0.00885926	0.206258	-0.225852	0	0	0.931599	-0.0750363	-0.284458	0.00640456	-0.405405	0	0	0.724716	0.203299	0.39049	-0.553495	-0.350478	-0.30719	0.936524	1.53092	0	0	-0.167965	-0.0543916	-0.637061	0.241053	1.5708	0	0
1.25	-3.04465	0.916296	1.45945	0.570603	0.103008	1.01897	0.490105	0.0709577	0.0116512	0.206682	-0.223165	0	0	0.930586	-0.0766251	-0.288128	0	-0.409679	0	0	0.722495	0.208216	0.38805	-0.550191	-0.354395	-0.30431	0.949189	1.53429	0	0	-0.167349	-0.0509931	-0.638986	0.247175	1.5708	0	0
1.26	-3.03822	0.915159	1.4486	0.570662	0.0915761	1.01627	0.479141	0.0766992	0.0161509	0.208447	-0.216456	0	0	0.930805	-0.0795317	-0.289232	0	-0.40835	0	0	0.718475	0.213274	0.382311	-0.545569	-0.360325	-0.298928	0.964329	1.54061	0	0	-0.168624	-0.0459514	-0.64586	0.256976	1.5708	0	0
1.27	-3.03311	0.914022	1.43988	0.570889	0.0799522	1.01347	0.468883	0.0808069	0.0181854	0.211946	-0.207924	0	0	0.9321	-0.0815892	-0.286813	0	-0.393041	0	0	0.714933	0.216685	0.376109	-0.54008	-0.365333	-0.293329	0.976666	1.54785	0	0	-0.170012	-0.040911	-0.656441	0.267013	1.5708	0	0
1.28	-3.03005	0.91257	1.43378	0.571241	0.0681159	1.01066	0.459771	0.0830117	0.0194146	0.216917	-0.203346	0	0	0.934402	-0.0823152	-0.285298	0	-0.381697	0	0	0.713471	0.218906	0.372278	-0.536789	-0.367973	-0.290328	0.987225	1.5526	0	0	-0.170195	-0.0379619	-0.660621	0.273425	1.5708	0	0
1.29	-3.02894	0.910976	1.43017	0.5717	0.0560386	1.00793	0.451715	0.0834597	0.0205129	0.223331	-0.198499	0	0	0.937913	-0.0811946	-0.2862	0	-0.373126	0	0	0.713174	0.219532	0.369425	-0.534257	-0.368992	-0.288268	0.995549	1.55724	0	0	-0.169785	-0.0362117	-0.663521	0.27769	1.5708	0	0
1.3	-3.02923	0.909254	1.42849	0.572216	0.0437316	1.00531	0.444675	0.082629	0.0215006	0.231191	-0.193806	0	0	0.942961	-0.0786506	-0.286408	0	-0.364144	0	0	0.713798	0.218939	0.367334	-0.532472	-0.368015	-0.287884	1.00194	1.56138	0	0	-0.168811	-0.0354364	-0.665994	0.28007	1.5708	0	0
1.31	-3.03042	0.907657	1.42858	0.572882	0.0312434	1.00288	0.438066	0.0806356	0.022704	0.23935	-0.192414	0	0	0.948709	-0.0749971	-0.28331	0	-0.360023	0	0	0.71516	0.217217	0.365789	-0.531342	-0.366192	-0.287467	1.00584	1.56238	0	0	-0.167389	-0.0356954	-0.666068	0.28046	1.5708	0	0
1.32	-3.03215	0.906327	1.42972	0.573611	0.0185593	1.00063	0.43199	0.0778937	0.0239933	0.249233	-0.191313	0	0	0.954951	-0.0712496	-0.277318	0	-0.356284	0	0	0.716283	0.214636	0.364318	-0.530551	-0.363528	-0.287363	1.00811	1.56315	0	0	-0.166014	-0.036388	-0.66602	0.280259	1.5708	0	0
1.33	-3.03352	0.905079	1.43125	0.574343	0.0056507	0.998536	0.42643	0.0750618	0.0248019	0.260698	-0.190559	0	0	0.961429	-0.0680626	-0.269737	0	-0.353525	0	0	0.717221	0.211678	0.362843	-0.530612	-0.359655	-0.288344	1.00913	1.56382	0	0	-0.16472	-0.0372843	-0.666271	0.27987	1.5708	0	0
1.34	-3.03423	0.903626	1.4326	0.575101	-0.00745839	0.996564	0.42175	0.0724162	0.0254007	0.273797	-0.190721	0	0	0.967386	-0.0655933	-0.262011	0	-0.352888	0	0	0.718542	0.208694	0.361302	-0.531745	-0.354343	-0.29054	1.00906	1.56359	0	0	-0.164029	-0.0381573	-0.667087	0.279841	1.57034	0	0
1.35	-3.03595	0.902579	1.43375	0.575811	-0.0210082	0.994764	0.417369	0.0692994	0.0262856	0.288491	-0.192333	0	0	0.970187	-0.063152	-0.249587	0	-0.353577	0	0	0.720108	0.205715	0.36123	-0.533907	-0.347827	-0.293103	1.00711	1.56277	0	0	-0.164574	-0.0392401	-0.668456	0.280209	1.56937	0	0
1.36	-3.0392	0.902279	1.43462	0.576426	-0.035089	0.99312	0.413417	0.0654464	0.0268906	0.305694	-0.195689	0	0	0.969191	-0.06057	-0.232375	0	-0.353745	0	0	0.721616	0.20288	0.36312	-0.537165	-0.340298	-0.2956	1.00336	1.5617	0	0	-0.166643	-0.0407907	-0.669922	0.281065	1.5685	0	0
1.37	-3.04407	0.902514	1.43549	0.57699	-0.049615	0.991644	0.411321	0.0604757	0.0253266	0.327984	-0.203464	0	0	0.964293	-0.0572856	-0.20931	0	-0.356666	0	0	0.724121	0.200022	0.367343	-0.541278	-0.33115	-0.298813	0.996589	1.56111	0	0	-0.170184	-0.0428402	-0.6718	0.282804	1.56764	0	0
1.38	-3.0506	0.902146	1.43682	0.577498	-0.0644728	0.990322	0.412138	0.0543888	0.0237968	0.353971	-0.216046	0	0	0.960315	-0.0537008	-0.195847	0.00770844	-0.373728	0	0	0.728569	0.19669	0.371475	-0.544703	-0.32204	-0.299384	0.986432	1.56227	0	0	-0.175754	-0.0454792	-0.674386	0.285197	1.56689	0	0
1.39	-3.05983	0.900027	1.43978	0.577923	-0.0794689	0.98917	0.417835	0.0467136	0.0237502	0.384782	-0.232099	0	0	0.959704	-0.0503537	-0.193179	0.0206897	-0.402913	0	0	0.73582	0.192217	0.37499	-0.546732	-0.31315	-0.296316	0.972418	1.56314	0	0	-0.18274	-0.0487131	-0.678787	0.287266	1.5651	0	0
1.4	-3.07093	0.896384	1.44506	0.578344	-0.0943665	0.988254	0.428717	0.0374568	0.0242223	0.42131	-0.250535	0	0	0.961098	-0.0478244	-0.193	0.0352974	-0.424664	0	0	0.744991	0.185721	0.376629	-0.546345	-0.30496	-0.289369	0.95443	1.56451	0	0	-0.190293	-0.0525165	-0.684501	0.288825	1.5625	0	0
1.41	-3.0832	0.8922	1.4536	0.578915	-0.109022	0.987658	0.443894	0.0259427	0.024121	0.462305	-0.274505	0	0	0.962118	-0.0447112	-0.189763	0.0507006	-0.431959	0	0	0.75404	0.176394	0.375646	-0.543089	-0.297254	-0.279861	0.932812	1.56645	0	0	-0.1973	-0.0566076	-0.691018	0.289856	1.55969	0	0
1.42	-3.09647	0.888836	1.46584	0.579745	-0.123388	0.987426	0.46149	0.0118212	0.0229262	0.506001	-0.304857	0	0	0.962144	-0.0390332	-0.182573	0.0689736	-0.425341	0	0	0.76092	0.163664	0.372382	-0.537086	-0.290003	-0.26836	0.907765	1.56962	0	0	-0.202921	-0.0609696	-0.697615	0.290201	1.5579	0	0
1.43	-3.1106	0.886686	1.4815	0.580831	-0.137375	0.987512	0.480519	-0.00426664	0.0213111	0.550915	-0.343459	0	0	0.962276	-0.0301243	-0.171922	0.0928073	-0.409159	0	0	0.764905	0.147754	0.367737	-0.528917	-0.282416	-0.257529	0.880686	1.5708	0	0	-0.206422	-0.0653198	-0.705209	0.289899	1.55717	0	0
